<?xml version="1.0" encoding="UTF-8"?>
<svg width="700pt" height="700pt" version="1.1" viewBox="0 0 700 700" xmlns="http://www.w3.org/2000/svg">
 <path d="m183.75 17.465c-14.391 0-26.234 11.91-26.234 26.301v262.5c0.019531 4.8047 3.9102 8.6953 8.7148 8.7148h148.77c14.695 0 26.215 11.59 26.215 26.285-0.26563 11.93 17.766 11.93 17.5 0 0-14.695 11.605-26.285 26.301-26.285h148.75c4.8047-0.015625 8.6953-3.9102 8.7148-8.7148v-262.5c0-14.391-11.824-26.301-26.215-26.301h-131.25c-14.344 0-27.035 7.0859-35.035 17.824-7.9805-10.738-20.641-17.824-34.984-17.824zm-43.734 288.84v-252.2c-10.137 3.6523-17.5 13.332-17.5 24.66v245c0 14.391 11.824 26.234 26.215 26.234h176.57c-1.0078-2.9688-1.6562-6.0781-1.5898-8.9297 0-5.3516-3.2266-8.5859-8.7148-8.5859l-148.8-0.003906c-14.246-0.066407-26.125-11.934-26.18-26.184zm393.79 26.184h-148.79c-5.4922 0-8.8008 3.3086-8.8008 8.5859 0.066406 2.8555-0.58203 5.9609-1.5898 8.9297h176.64c14.391 0 26.234-11.844 26.234-26.234v-245c0-11.328-7.375-21.008-17.516-24.66v252.2c-0.054687 14.25-11.934 26.117-26.184 26.184zm-332.55-262.5h113.75c11.68 0 11.68 17.516 0 17.516h-113.75c-11.68 0-11.68-17.516 0-17.516zm183.75 0h113.75c11.68 0 11.68 17.516 0 17.516h-113.75c-11.68 0-11.68-17.516 0-17.516zm-183.75 43.766h17.5c11.672 0.003906 11.672 17.504 0 17.5h-17.5c-11.672-0.003906-11.672-17.504 0-17.5zm52.5 0h61.25c11.672 0.003906 11.672 17.504 0 17.5h-61.25c-11.672-0.003906-11.672-17.504 0-17.5zm131.25 0h61.25c11.672-0.003906 11.672 17.496 0 17.5h-61.25c-11.672 0.003906-11.672-17.496 0-17.5zm96.25 0h17.5c11.672-0.003906 11.672 17.496 0 17.5h-17.5c-11.672 0.003906-11.672-17.496 0-17.5zm-280 43.734h113.75c11.68 0 11.68 17.516 0 17.516h-113.75c-11.68 0-11.68-17.516 0-17.516zm183.75 0h113.75c11.68 0 11.68 17.516 0 17.516h-113.75c-11.68 0-11.68-17.516 0-17.516zm-183.75 43.766h61.25c11.672-0.003906 11.672 17.496 0 17.5h-61.25c-11.672 0.003906-11.672-17.496 0-17.5zm96.25 0h17.5c11.672-0.003906 11.672 17.496 0 17.5h-17.5c-11.672 0.003906-11.672-17.496 0-17.5zm87.5 0h17.5c11.672 0.003906 11.672 17.504 0 17.5h-17.5c-11.672-0.003906-11.672-17.504 0-17.5zm52.5 0h61.25c11.672 0.003906 11.672 17.504 0 17.5h-61.25c-11.672-0.003906-11.672-17.504 0-17.5zm-236.25 43.734h113.75c11.617 0.066406 11.617 17.449 0 17.516h-113.75c-11.738 0.066406-11.738-17.582 0-17.516zm183.56 0h113.94c11.738-0.066406 11.738 17.582 0 17.516h-113.75c-11.68 0.26562-12.055-17.254-0.1875-17.516zm-271.08 140.02c-14.391 0-26.234 11.824-26.234 26.215v105.04c0 14.391 11.84 26.215 26.234 26.215h332.52c14.391 0 26.215-11.824 26.215-26.215v-105.04c0-14.391-11.824-26.215-26.215-26.215zm420.04 0c-24.086 0-43.801 19.645-43.801 43.734v52.516c0 33.781 27.52 61.215 61.301 61.215s61.234-27.434 61.234-61.215v-52.516c0-24.086-19.629-43.734-43.715-43.734h-8.8008v61.234c0 11.668-17.5 11.668-17.5 0v-61.234zm-393.79 35h17.535c11.668 0 11.668 17.516 0 17.516h-17.504c-11.684 0-11.727-17.516-0.03125-17.516zm70.035 0c11.668 0 11.668 17.516 0 17.516h-17.504c-11.684 0-11.727-17.516-0.035156-17.516zm52.5 0c11.668 0 11.668 17.516 0 17.516h-17.504c-11.684 0-11.727-17.516-0.035156-17.516zm52.5 0c11.668 0 11.668 17.516 0 17.516h-17.504c-11.684 0-11.727-17.516-0.035156-17.516zm52.5 0c11.668 0 11.668 17.516 0 17.516h-17.504c-11.684 0-11.727-17.516-0.035156-17.516zm52.5 0c11.668 0 11.668 17.516 0 17.516h-17.5c-11.684 0-11.727-17.516-0.03125-17.516zm-236.25 35c11.668 0 11.668 17.5 0 17.5h-17.504c-11.688 0-11.742-17.5-0.050781-17.5zm52.5 0c11.668 0 11.668 17.5 0 17.5h-17.504c-11.688 0-11.742-17.5-0.050781-17.5zm52.5 0c11.668 0 11.668 17.5 0 17.5h-17.504c-11.688 0-11.742-17.5-0.050781-17.5zm52.5 0c11.668 0 11.668 17.5 0 17.5h-17.504c-11.688 0-11.742-17.5-0.050781-17.5zm52.5 0c11.668 0 11.668 17.5 0 17.5h-17.504c-11.688 0-11.742-17.5-0.050781-17.5zm-236.25 35.016c11.668 0 11.668 17.5 0 17.5h-17.504c-11.684 0-11.727-17.5-0.03125-17.5zm262.5 0c11.668 0 11.668 17.5 0 17.5h-17.5c-11.684 0-11.727-17.5-0.03125-17.5zm-52.5 0.015625c11.668 0 11.668 17.5 0 17.5h-174.98c-11.668 0.60156-12.582-16.898-0.46094-17.5z"/>
</svg>
