<?xml version="1.0" encoding="UTF-8"?>
<svg width="700pt" height="700pt" version="1.1" viewBox="0 0 700 700" xmlns="http://www.w3.org/2000/svg" xmlns:xlink="http://www.w3.org/1999/xlink">
 <defs>
  <symbol id="l" overflow="visible">
   <path d="m29.312-1.75c-1.5117 0.78125-3.0898 1.3711-4.7344 1.7656-1.6367 0.40625-3.3398 0.60938-5.1094 0.60938-5.3125 0-9.5273-1.4844-12.641-4.4531-3.1055-2.9688-4.6562-7-4.6562-12.094s1.5508-9.125 4.6562-12.094c3.1133-2.9688 7.3281-4.4531 12.641-4.4531 1.7695 0 3.4727 0.19922 5.1094 0.59375 1.6445 0.39844 3.2227 0.99219 4.7344 1.7812v6.5938c-1.5312-1.0391-3.0391-1.8008-4.5156-2.2812-1.4805-0.48828-3.0391-0.73438-4.6719-0.73438-2.9375 0-5.2461 0.94531-6.9219 2.8281-1.6797 1.875-2.5156 4.4648-2.5156 7.7656 0 3.293 0.83594 5.8828 2.5156 7.7656 1.6758 1.875 3.9844 2.8125 6.9219 2.8125 1.6328 0 3.1914-0.23828 4.6719-0.71875 1.4766-0.48828 2.9844-1.2539 4.5156-2.2969z"/>
  </symbol>
  <symbol id="c" overflow="visible">
   <path d="m21.453-17.406c-0.67969-0.3125-1.3516-0.53906-2.0156-0.6875-0.65625-0.15625-1.3203-0.23438-1.9844-0.23438-1.9688 0-3.4844 0.63281-4.5469 1.8906-1.0547 1.2617-1.5781 3.0703-1.5781 5.4219v11.016h-7.6562v-23.922h7.6562v3.9219c0.97656-1.5625 2.1016-2.7031 3.375-3.4219 1.2812-0.71875 2.8125-1.0781 4.5938-1.0781 0.25 0 0.52344 0.011719 0.82812 0.03125 0.30078 0.023438 0.73438 0.070312 1.2969 0.14062z"/>
  </symbol>
  <symbol id="b" overflow="visible">
   <path d="m27.562-12.031v2.1875h-17.891c0.1875 1.793 0.83203 3.1367 1.9375 4.0312 1.1133 0.89844 2.6719 1.3438 4.6719 1.3438 1.6016 0 3.25-0.23438 4.9375-0.70312 1.6875-0.47656 3.4219-1.2031 5.2031-2.1719v5.8906c-1.8047 0.6875-3.6094 1.2031-5.4219 1.5469-1.8125 0.35156-3.6211 0.53125-5.4219 0.53125-4.3359 0-7.7031-1.0977-10.109-3.2969-2.3984-2.207-3.5938-5.2969-3.5938-9.2656 0-3.9062 1.1758-6.9727 3.5312-9.2031 2.3633-2.2383 5.6094-3.3594 9.7344-3.3594 3.7578 0 6.7695 1.1367 9.0312 3.4062 2.2578 2.2617 3.3906 5.2812 3.3906 9.0625zm-7.8594-2.5312c0-1.457-0.42969-2.6289-1.2812-3.5156-0.84375-0.89453-1.9492-1.3438-3.3125-1.3438-1.4922 0-2.6992 0.41797-3.625 1.25-0.91797 0.83594-1.4922 2.0391-1.7188 3.6094z"/>
  </symbol>
  <symbol id="a" overflow="visible">
   <path d="m14.391-10.766c-1.5938 0-2.793 0.27344-3.5938 0.8125-0.80469 0.54297-1.2031 1.3398-1.2031 2.3906 0 0.96875 0.32031 1.7305 0.96875 2.2812 0.64453 0.54297 1.5469 0.8125 2.7031 0.8125 1.4375 0 2.6445-0.51562 3.625-1.5469 0.98828-1.0312 1.4844-2.3203 1.4844-3.875v-0.875zm11.688-2.8906v13.656h-7.7031v-3.5469c-1.0312 1.4492-2.1875 2.5078-3.4688 3.1719s-2.8398 1-4.6719 1c-2.4805 0-4.4961-0.72266-6.0469-2.1719-1.543-1.4453-2.3125-3.3203-2.3125-5.625 0-2.8125 0.96094-4.8672 2.8906-6.1719 1.9375-1.3125 4.9688-1.9688 9.0938-1.9688h4.5156v-0.60938c0-1.207-0.48047-2.0938-1.4375-2.6562-0.94922-0.5625-2.4375-0.84375-4.4688-0.84375-1.6367 0-3.1562 0.16797-4.5625 0.5-1.4062 0.32422-2.7188 0.8125-3.9375 1.4688v-5.8281c1.6445-0.40625 3.2891-0.70703 4.9375-0.90625 1.6562-0.20703 3.3047-0.3125 4.9531-0.3125 4.3203 0 7.4375 0.85547 9.3438 2.5625 1.9141 1.6992 2.875 4.4609 2.875 8.2812z"/>
  </symbol>
  <symbol id="d" overflow="visible">
   <path d="m12.031-30.719v6.7969h7.875v5.4688h-7.875v10.141c0 1.1172 0.21875 1.8711 0.65625 2.2656 0.4375 0.38672 1.3125 0.57812 2.625 0.57812h3.9375v5.4688h-6.5625c-3.0234 0-5.1641-0.62891-6.4219-1.8906-1.2617-1.2578-1.8906-3.3984-1.8906-6.4219v-10.141h-3.7969v-5.4688h3.7969v-6.7969z"/>
  </symbol>
  <symbol id="h" overflow="visible">
   <path d="m19.953-20.422v-12.812h7.6875v33.234h-7.6875v-3.4531c-1.0547 1.4062-2.2148 2.4375-3.4844 3.0938-1.2734 0.65625-2.7422 0.98438-4.4062 0.98438-2.9492 0-5.3711-1.1719-7.2656-3.5156-1.8867-2.3438-2.8281-5.3594-2.8281-9.0469s0.94141-6.7031 2.8281-9.0469c1.8945-2.3438 4.3164-3.5156 7.2656-3.5156 1.6562 0 3.1172 0.33594 4.3906 1 1.2812 0.65625 2.4453 1.6836 3.5 3.0781zm-5.0469 15.484c1.6445 0 2.8945-0.59766 3.75-1.7969 0.86328-1.1953 1.2969-2.9297 1.2969-5.2031 0-2.2812-0.43359-4.0195-1.2969-5.2188-0.85547-1.1953-2.1055-1.7969-3.75-1.7969-1.625 0-2.8711 0.60156-3.7344 1.7969-0.85547 1.1992-1.2812 2.9375-1.2812 5.2188 0 2.2734 0.42578 4.0078 1.2812 5.2031 0.86328 1.1992 2.1094 1.7969 3.7344 1.7969z"/>
  </symbol>
  <symbol id="g" overflow="visible">
   <path d="m16.406-4.9375c1.6328 0 2.8828-0.59766 3.75-1.7969 0.86328-1.1953 1.2969-2.9297 1.2969-5.2031 0-2.2812-0.43359-4.0195-1.2969-5.2188-0.86719-1.1953-2.1172-1.7969-3.75-1.7969-1.6367 0-2.8906 0.60547-3.7656 1.8125-0.875 1.1992-1.3125 2.9336-1.3125 5.2031 0 2.2617 0.4375 3.9961 1.3125 5.2031 0.875 1.1992 2.1289 1.7969 3.7656 1.7969zm-5.0781-15.484c1.0508-1.3945 2.2188-2.4219 3.5-3.0781 1.2812-0.66406 2.7539-1 4.4219-1 2.9453 0 5.3672 1.1719 7.2656 3.5156 1.8945 2.3438 2.8438 5.3594 2.8438 9.0469s-0.94922 6.7031-2.8438 9.0469c-1.8984 2.3438-4.3203 3.5156-7.2656 3.5156-1.668 0-3.1406-0.33594-4.4219-1s-2.4492-1.6914-3.5-3.0781v3.4531h-7.6562v-33.234h7.6562z"/>
  </symbol>
  <symbol id="f" overflow="visible">
   <path d="m0.53125-23.922h7.6562l6.4219 16.234 5.4688-16.234h7.6562l-10.062 26.188c-1.0117 2.6641-2.1953 4.5234-3.5469 5.5781-1.3438 1.0625-3.1211 1.5938-5.3281 1.5938h-4.4219v-5.0156h2.3906c1.3008 0 2.2422-0.21094 2.8281-0.625 0.59375-0.40625 1.0547-1.1484 1.3906-2.2188l0.20312-0.65625z"/>
  </symbol>
  <symbol id="e" overflow="visible">
   <path d="m27.734-14.562v14.562h-7.7031v-11.156c0-2.0625-0.046875-3.4844-0.14062-4.2656-0.085937-0.78125-0.24219-1.3594-0.46875-1.7344-0.30469-0.5-0.71094-0.88281-1.2188-1.1562-0.51172-0.28125-1.0938-0.42188-1.75-0.42188-1.5938 0-2.8516 0.61719-3.7656 1.8438-0.90625 1.2305-1.3594 2.9375-1.3594 5.125v11.766h-7.6562v-23.922h7.6562v3.5c1.1445-1.3945 2.3633-2.4219 3.6562-3.0781 1.3008-0.66406 2.7383-1 4.3125-1 2.7578 0 4.8516 0.85156 6.2812 2.5469 1.4375 1.6875 2.1562 4.1523 2.1562 7.3906z"/>
  </symbol>
  <symbol id="k" overflow="visible">
   <path d="m3.6719-23.922h7.6562v23.5c0 3.1953-0.77344 5.6406-2.3125 7.3281-1.543 1.6875-3.7734 2.5312-6.6875 2.5312h-3.7812v-5.0156h1.3281c1.4453 0 2.4414-0.32812 2.9844-0.98438 0.53906-0.65625 0.8125-1.9453 0.8125-3.8594zm0-9.3125h7.6562v6.2344h-7.6562z"/>
  </symbol>
  <symbol id="j" overflow="visible">
   <path d="m3.6719-23.922h7.6562v23.922h-7.6562zm0-9.3125h7.6562v6.2344h-7.6562z"/>
  </symbol>
  <symbol id="i" overflow="visible">
   <path d="m3.6719-33.234h7.6562v18.094l8.7969-8.7812h8.8906l-11.688 10.969 12.594 12.953h-9.2656l-9.3281-9.9688v9.9688h-7.6562z"/>
  </symbol>
 </defs>
 <g>
  <path d="m566.19 431.31c-2.5039-2.5-6.2656-3.25-9.5352-1.8945-3.2695 1.3555-5.4023 4.543-5.4023 8.082v17.5h-92.398c29.176-33.906 46.211-76.574 48.406-121.25 2.1953-44.68-10.574-88.812-36.289-125.41 30.148 14.5 65.395 13.828 94.965-1.8164 29.574-15.645 49.965-44.398 54.945-77.48 4.9805-33.082-6.0391-66.562-29.695-90.223-23.66-23.656-57.141-34.676-90.223-29.695-33.082 4.9805-61.836 25.371-77.48 54.945-15.645 29.57-16.316 64.816-1.8164 94.965-23.891-16.809-51.164-28.195-79.914-33.363-28.75-5.1719-58.281-4-86.531 3.4297l-67.848-67.848 11.312-11.312h0.003906c2.5-2.5039 3.25-6.2656 1.8945-9.5352-1.3555-3.2695-4.543-5.4023-8.082-5.4023h-78.75c-4.832 0-8.75 3.918-8.75 8.75v78.75c0 3.5391 2.1328 6.7266 5.4023 8.082 3.2695 1.3555 7.0312 0.60547 9.5352-1.8945l11.312-11.316 49.324 49.324c-22.422 17.91-40.75 40.41-53.754 65.988-13.004 25.582-20.383 53.648-21.637 82.316h-17.684c-3.5391 0-6.7266 2.1328-8.082 5.4023-1.3555 3.2695-0.60547 7.0312 1.8945 9.5352l52.5 52.5c3.418 3.4141 8.957 3.4141 12.375 0l46.312-46.316v5.1289c0 2.3203 0.92188 4.5469 2.5625 6.1875s3.8672 2.5625 6.1875 2.5625h12.383c2.0391 7.1992 4.9219 14.133 8.582 20.66l-8.75 8.75c-3.4141 3.4141-3.4141 8.9531 0 12.371l24.746 24.746c3.4141 3.4141 8.9531 3.4141 12.371 0l8.75-8.75c6.5273 3.6641 13.465 6.5469 20.668 8.5898v12.383c0 2.3203 0.92188 4.5469 2.5625 6.1875s3.8672 2.5625 6.1875 2.5625h35c2.3203 0 4.5469-0.92188 6.1875-2.5625s2.5625-3.8672 2.5625-6.1875v-12.383c7.1992-2.0391 14.133-4.9219 20.66-8.582l8.75 8.75c3.4141 3.4141 8.9531 3.4141 12.371 0l24.746-24.746c3.4141-3.4141 3.4141-8.9531 0-12.371l-8.75-8.75c3.6641-6.5273 6.5469-13.465 8.5898-20.668h12.383c2.3203 0 4.5469-0.92188 6.1875-2.5625s2.5625-3.8672 2.5625-6.1875v-35c0-2.3203-0.92188-4.5469-2.5625-6.1875s-3.8672-2.5625-6.1875-2.5625h-12.383c-2.0391-7.1992-4.9219-14.133-8.582-20.66l8.75-8.75c3.4141-3.4141 3.4141-8.9531 0-12.371l-24.746-24.746c-3.4141-3.4141-8.9531-3.4141-12.371 0l-8.75 8.75c-6.5273-3.6641-13.465-6.5508-20.668-8.5898v-12.383c0-2.3203-0.92188-4.5469-2.5625-6.1875s-3.8672-2.5625-6.1875-2.5625h-35c-4.832 0-8.75 3.918-8.75 8.75v12.383c-7.1992 2.0391-14.133 4.918-20.66 8.582l-8.75-8.75c-3.4141-3.4141-8.9531-3.4141-12.371 0l-24.746 24.746c-3.4141 3.4141-3.4141 8.9531 0 12.371l8.75 8.75c-3.6641 6.5273-6.5469 13.465-8.5898 20.668h-12.383c-4.832 0-8.75 3.918-8.75 8.75v8.75h-17.211c2.2852-34.227 17.883-66.199 43.449-89.07 25.566-22.871 59.074-34.824 93.344-33.301 34.27 1.5273 66.582 16.406 90.016 41.461 23.434 25.051 36.129 58.281 35.367 92.578-0.76172 34.293-14.922 66.93-39.445 90.914-24.523 23.984-57.465 37.418-91.77 37.418h-218.75c-4.832 0-8.75 3.918-8.75 8.75v52.5c0 2.3203 0.92188 4.5469 2.5625 6.1875s3.8672 2.5625 6.1875 2.5625h463.75v17.5c0 3.5391 2.1289 6.7305 5.3984 8.0859 1.0625 0.44141 2.2031 0.66797 3.3516 0.66406 2.3203 0 4.5469-0.92188 6.1875-2.5625l52.5-52.5c3.4141-3.418 3.4141-8.957 0-12.375zm-356.19-116.31h10.5c4.1602 0 7.7422-2.9258 8.5742-7 2.0039-9.8672 5.9023-19.25 11.48-27.633 2.3047-3.4688 1.8398-8.082-1.1016-11.023l-7.4531-7.4531 12.371-12.371 7.4531 7.4453v-0.003906c2.9414 2.9414 7.5469 3.4062 11.016 1.1133 8.3906-5.582 17.785-9.4805 27.66-11.48 4.082-0.83594 7.0078-4.4297 7-8.5938v-10.5h17.5v10.5c-0.003906 4.1602 2.9219 7.75 7 8.582 9.8672 2.0039 19.254 5.8984 27.641 11.473 3.4688 2.2969 8.0742 1.832 11.016-1.1094l7.4531-7.4453 12.371 12.371-7.4531 7.4531h0.003906c-2.9453 2.9453-3.4062 7.5547-1.1055 11.027 5.582 8.3867 9.4844 17.777 11.492 27.648 0.82812 4.0742 4.4141 7 8.5742 7h10.508v17.5h-10.5c-4.1602 0-7.7422 2.9258-8.5742 7-2.0039 9.8672-5.9023 19.25-11.48 27.633-2.3047 3.4688-1.8398 8.082 1.1016 11.023l7.4531 7.4531-12.371 12.371-7.4531-7.4531v0.003906c-2.9414-2.9492-7.5547-3.4141-11.027-1.1133-8.3828 5.5898-17.773 9.4922-27.648 11.488-4.0781 0.83203-7.0039 4.4219-7 8.5859v10.508h-17.5v-10.5c0.003906-4.1602-2.9219-7.75-7-8.582-9.8672-2-19.254-5.8984-27.633-11.48-3.4727-2.3008-8.082-1.8359-11.023 1.1094l-7.4531 7.4531-12.371-12.371 7.4531-7.4531h-0.003906c2.9453-2.9453 3.4062-7.5547 1.1055-11.027-5.582-8.3867-9.4844-17.777-11.492-27.648-0.82812-4.0742-4.4141-7-8.5742-7h-10.508zm256.51-129.35 0.45313-1.3633c4.625-13.883 14.891-25.172 28.273-31.09 13.383-5.918 28.641-5.918 42.023 0 13.379 5.918 23.645 17.207 28.273 31.09l0.46484 1.375-0.003906-0.003906c-14.598 10.156-31.957 15.602-49.742 15.602s-35.145-5.4453-49.742-15.602zm49.742-159.4c22.891-0.039062 44.883 8.9102 61.246 24.922 16.359 16.012 25.785 37.805 26.242 60.691s-8.0898 45.039-23.797 61.691c-7.0859-16.797-20.52-30.113-37.375-37.055-16.859-6.9414-35.773-6.9414-52.633 0-16.855 6.9414-30.289 20.258-37.375 37.055-15.707-16.652-24.254-38.805-23.797-61.691s9.8828-44.68 26.242-60.691c16.363-16.012 38.355-24.961 61.246-24.922zm-378.81 72.562c-3.418-3.4141-8.957-3.4141-12.375 0l-2.5625 2.5664v-48.879h48.879l-2.5625 2.5625h-0.003906c-3.4141 3.418-3.4141 8.957 0 12.375l67.602 67.602h0.003907c-14.629 5.4297-28.57 12.551-41.547 21.211zm317.56 224.94c0-53.145-28.352-102.25-74.375-128.82-46.023-26.574-102.73-26.574-148.75 0-46.023 26.57-74.375 75.676-74.375 128.82 0 2.3203 0.92188 4.5469 2.5625 6.1875s3.8672 2.5625 6.1875 2.5625h5.1289l-31.379 31.379-31.379-31.379h5.1289c2.3203 0 4.5469-0.92188 6.1875-2.5625s2.5625-3.8672 2.5625-6.1875c0-48.734 19.359-95.473 53.82-129.93 34.457-34.461 81.195-53.82 129.93-53.82s95.473 19.359 129.93 53.82c34.461 34.457 53.82 81.195 53.82 129.93 0.082031 24.477-4.7812 48.719-14.293 71.27-9.5117 22.555-23.477 42.953-41.059 59.98h-58.547c23.809-12.676 43.727-31.582 57.621-54.699 13.898-23.117 21.25-49.578 21.277-76.551zm113.75 197.63v-5.1289c0-2.3203-0.92188-4.5469-2.5625-6.1875s-3.8672-2.5625-6.1875-2.5625h-463.75v-35h463.75c2.3203 0 4.5469-0.92188 6.1875-2.5625s2.5625-3.8672 2.5625-6.1875v-5.1289l31.379 31.379z"/>
  <path d="m306.25 385c16.246 0 31.824-6.4531 43.309-17.941 11.488-11.484 17.941-27.062 17.941-43.309s-6.4531-31.824-17.941-43.309c-11.484-11.488-27.062-17.941-43.309-17.941s-31.824 6.4531-43.309 17.941c-11.488 11.484-17.941 27.062-17.941 43.309 0.019531 16.238 6.4766 31.809 17.961 43.289 11.48 11.484 27.051 17.941 43.289 17.961zm0-105c11.602 0 22.73 4.6094 30.938 12.812 8.2031 8.207 12.812 19.336 12.812 30.938s-4.6094 22.73-12.812 30.938c-8.207 8.2031-19.336 12.812-30.938 12.812s-22.73-4.6094-30.938-12.812c-8.2031-8.207-12.812-19.336-12.812-30.938 0.015625-11.598 4.6289-22.719 12.828-30.922 8.2031-8.1992 19.324-12.812 30.922-12.828z"/>
  <path d="m507.5 122.5h17.5c6.9609 0 13.641-2.7656 18.562-7.6875s7.6875-11.602 7.6875-18.562v-35c0-6.9609-2.7656-13.641-7.6875-18.562s-11.602-7.6875-18.562-7.6875h-17.5c-6.9609 0-13.641 2.7656-18.562 7.6875s-7.6875 11.602-7.6875 18.562v35c0 6.9609 2.7656 13.641 7.6875 18.562s11.602 7.6875 18.562 7.6875zm-8.75-61.25c0-4.832 3.918-8.75 8.75-8.75h17.5c2.3203 0 4.5469 0.92188 6.1875 2.5625s2.5625 3.8672 2.5625 6.1875v35c0 2.3203-0.92188 4.5469-2.5625 6.1875s-3.8672 2.5625-6.1875 2.5625h-17.5c-4.832 0-8.75-3.918-8.75-8.75z"/>
  <use x="70" y="691.25" xlink:href="#l"/>
  <use x="102.109375" y="691.25" xlink:href="#c"/>
  <use x="123.683594" y="691.25" xlink:href="#b"/>
  <use x="153.355469" y="691.25" xlink:href="#a"/>
  <use x="182.878906" y="691.25" xlink:href="#d"/>
  <use x="203.792969" y="691.25" xlink:href="#b"/>
  <use x="233.464844" y="691.25" xlink:href="#h"/>
  <use x="280.011719" y="691.25" xlink:href="#g"/>
  <use x="311.328125" y="691.25" xlink:href="#f"/>
  <use x="355.078125" y="691.25" xlink:href="#e"/>
  <use x="386.226562" y="691.25" xlink:href="#a"/>
  <use x="415.75" y="691.25" xlink:href="#c"/>
  <use x="437.324219" y="691.25" xlink:href="#b"/>
  <use x="466.996094" y="691.25" xlink:href="#b"/>
  <use x="496.667969" y="691.25" xlink:href="#c"/>
  <use x="518.246094" y="691.25" xlink:href="#a"/>
  <use x="547.769531" y="691.25" xlink:href="#d"/>
  <use x="583.914062" y="691.25" xlink:href="#k"/>
  <use x="598.910156" y="691.25" xlink:href="#a"/>
  <use x="628.433594" y="691.25" xlink:href="#j"/>
  <use x="643.429687" y="691.25" xlink:href="#i"/>
  <use x="672.523438" y="691.25" xlink:href="#a"/>
 </g>
</svg>
