<?xml version="1.0" encoding="UTF-8"?>
<svg width="700pt" height="700pt" version="1.1" viewBox="0 0 700 700" xmlns="http://www.w3.org/2000/svg" xmlns:xlink="http://www.w3.org/1999/xlink">
 <defs>
  <symbol id="v" overflow="visible">
   <path d="m3.7812-0.21875c-0.19922 0.09375-0.40234 0.16797-0.60938 0.21875-0.21094 0.050781-0.42969 0.078125-0.65625 0.078125-0.6875 0-1.2344-0.1875-1.6406-0.5625-0.39844-0.38281-0.59375-0.90625-0.59375-1.5625s0.19531-1.1758 0.59375-1.5625c0.40625-0.38281 0.95312-0.57812 1.6406-0.57812 0.22656 0 0.44531 0.027344 0.65625 0.078125 0.20703 0.054687 0.41016 0.13281 0.60938 0.23438v0.84375c-0.19922-0.13281-0.39844-0.23438-0.59375-0.29688-0.1875-0.0625-0.38672-0.09375-0.59375-0.09375-0.375 0-0.67188 0.125-0.89062 0.375-0.21875 0.24219-0.32812 0.57422-0.32812 1 0 0.41797 0.10938 0.75 0.32812 1 0.21875 0.24219 0.51562 0.35938 0.89062 0.35938 0.20703 0 0.40625-0.03125 0.59375-0.09375 0.19531-0.0625 0.39453-0.16016 0.59375-0.29688z"/>
  </symbol>
  <symbol id="d" overflow="visible">
   <path d="m2.7656-2.25c-0.085937-0.039062-0.17188-0.066406-0.26562-0.078125-0.085938-0.019531-0.16797-0.03125-0.25-0.03125-0.25 0-0.44922 0.085937-0.59375 0.25-0.13672 0.15625-0.20312 0.38672-0.20312 0.6875v1.4219h-0.98438v-3.0781h0.98438v0.5c0.13281-0.19531 0.28125-0.34375 0.4375-0.4375 0.16406-0.09375 0.36328-0.14062 0.59375-0.14062h0.10938c0.039062 0 0.097656 0.007812 0.17188 0.015625z"/>
  </symbol>
  <symbol id="b" overflow="visible">
   <path d="m3.5469-1.5469v0.28125h-2.2969c0.019531 0.23047 0.10156 0.40234 0.25 0.51562 0.14453 0.11719 0.34375 0.17188 0.59375 0.17188 0.20703 0 0.42188-0.03125 0.64062-0.09375s0.44141-0.15625 0.67188-0.28125v0.76562c-0.23047 0.085938-0.46484 0.14844-0.70312 0.1875-0.23047 0.050781-0.46094 0.078125-0.6875 0.078125-0.5625 0-1-0.14062-1.3125-0.42188-0.30469-0.28125-0.45312-0.67969-0.45312-1.2031 0-0.5 0.14844-0.89062 0.45312-1.1719 0.30078-0.28906 0.71875-0.4375 1.25-0.4375 0.48828 0 0.875 0.14844 1.1562 0.4375 0.28906 0.29297 0.4375 0.68359 0.4375 1.1719zm-1-0.32812c0-0.1875-0.058594-0.33594-0.17188-0.45312-0.10547-0.11328-0.24609-0.17188-0.42188-0.17188-0.19922 0-0.35938 0.054688-0.48438 0.15625-0.11719 0.10547-0.18359 0.26172-0.20312 0.46875z"/>
  </symbol>
  <symbol id="l" overflow="visible">
   <path d="m1.8594-1.3906c-0.21094 0-0.36719 0.039063-0.46875 0.10938-0.10547 0.074219-0.15625 0.17969-0.15625 0.3125 0 0.125 0.039063 0.22656 0.125 0.29688 0.082031 0.0625 0.19531 0.09375 0.34375 0.09375 0.1875 0 0.34375-0.0625 0.46875-0.1875 0.13281-0.13281 0.20312-0.30469 0.20312-0.51562v-0.10938zm1.5-0.375v1.7656h-0.98438v-0.45312c-0.13672 0.1875-0.28906 0.32422-0.45312 0.40625-0.16797 0.082031-0.37109 0.125-0.60938 0.125-0.3125 0-0.57031-0.09375-0.76562-0.28125-0.19922-0.1875-0.29688-0.42578-0.29688-0.71875 0-0.36328 0.11719-0.62891 0.35938-0.79688 0.25-0.16406 0.64062-0.25 1.1719-0.25h0.59375v-0.078125c0-0.15625-0.0625-0.26953-0.1875-0.34375-0.125-0.070313-0.32031-0.10938-0.57812-0.10938-0.21094 0-0.40625 0.023438-0.59375 0.0625-0.17969 0.042969-0.34375 0.10547-0.5 0.1875v-0.75c0.20703-0.050781 0.41406-0.085938 0.625-0.10938 0.21875-0.03125 0.42969-0.046875 0.64062-0.046875 0.5625 0 0.96094 0.10938 1.2031 0.32812 0.25 0.21875 0.375 0.57422 0.375 1.0625z"/>
  </symbol>
  <symbol id="a" overflow="visible">
   <path d="m1.5469-3.9531v0.875h1.0156v0.70312h-1.0156v1.2969c0 0.14844 0.023437 0.24609 0.078125 0.29688 0.0625 0.054688 0.17578 0.078125 0.34375 0.078125h0.51562v0.70312h-0.84375c-0.39844 0-0.67969-0.078125-0.84375-0.23438-0.15625-0.16406-0.23438-0.44531-0.23438-0.84375v-1.2969h-0.48438v-0.70312h0.48438v-0.875z"/>
  </symbol>
  <symbol id="f" overflow="visible">
   <path d="m2.5781-2.6406v-1.6406h0.98438v4.2812h-0.98438v-0.45312c-0.13672 0.1875-0.28906 0.32422-0.45312 0.40625-0.16797 0.082031-0.35547 0.125-0.5625 0.125-0.38672 0-0.70312-0.14844-0.95312-0.45312-0.24219-0.30078-0.35938-0.69141-0.35938-1.1719 0-0.46875 0.11719-0.85156 0.35938-1.1562 0.25-0.30078 0.56641-0.45312 0.95312-0.45312 0.20703 0 0.39453 0.042969 0.5625 0.125 0.16406 0.085938 0.31641 0.21484 0.45312 0.39062zm-0.65625 2c0.20703 0 0.36719-0.070313 0.48438-0.21875 0.11328-0.15625 0.17188-0.38281 0.17188-0.6875 0-0.28906-0.058594-0.50781-0.17188-0.65625-0.11719-0.15625-0.27734-0.23438-0.48438-0.23438-0.21094 0-0.37109 0.078125-0.48438 0.23438-0.10547 0.14844-0.15625 0.36719-0.15625 0.65625 0 0.30469 0.050781 0.53125 0.15625 0.6875 0.11328 0.14844 0.27344 0.21875 0.48438 0.21875z"/>
  </symbol>
  <symbol id="k" overflow="visible">
   <path d="m2.1094-0.64062c0.21875 0 0.37891-0.070313 0.48438-0.21875 0.11328-0.15625 0.17188-0.38281 0.17188-0.6875 0-0.28906-0.058594-0.50781-0.17188-0.65625-0.10547-0.15625-0.26562-0.23438-0.48438-0.23438-0.21094 0-0.37109 0.078125-0.48438 0.23438-0.11719 0.14844-0.17188 0.36719-0.17188 0.65625 0 0.29297 0.054687 0.51562 0.17188 0.67188 0.11328 0.15625 0.27344 0.23438 0.48438 0.23438zm-0.65625-2c0.13281-0.17578 0.28516-0.30469 0.45312-0.39062 0.16406-0.082031 0.35938-0.125 0.57812-0.125 0.375 0 0.67969 0.15234 0.92188 0.45312 0.25 0.30469 0.375 0.6875 0.375 1.1562 0 0.48047-0.125 0.87109-0.375 1.1719-0.24219 0.30469-0.54688 0.45312-0.92188 0.45312-0.21875 0-0.41406-0.042969-0.57812-0.125-0.16797-0.082031-0.32031-0.21875-0.45312-0.40625v0.45312h-0.98438v-4.2812h0.98438z"/>
  </symbol>
  <symbol id="e" overflow="visible">
   <path d="m0.0625-3.0781h1l0.82812 2.0938 0.70312-2.0938h0.98438l-1.2969 3.375c-0.13672 0.34375-0.29297 0.58203-0.46875 0.71875-0.16797 0.13281-0.39062 0.20312-0.67188 0.20312h-0.57812v-0.65625h0.3125c0.16406 0 0.28516-0.027344 0.35938-0.078125 0.082031-0.054687 0.14453-0.14844 0.1875-0.28125l0.015625-0.078125z"/>
  </symbol>
  <symbol id="j" overflow="visible">
   <path d="m3.0156-0.75h-1.6562l-0.26562 0.75h-1.0625l1.5156-4.1094h1.2656l1.5312 4.1094h-1.0781zm-1.3906-0.76562h1.125l-0.5625-1.625z"/>
  </symbol>
  <symbol id="i" overflow="visible">
   <path d="m3.3281-2.5781c0.125-0.1875 0.26953-0.32812 0.4375-0.42188 0.17578-0.10156 0.36719-0.15625 0.57812-0.15625 0.35156 0 0.625 0.10938 0.8125 0.32812s0.28125 0.53906 0.28125 0.95312v1.875h-1v-1.6094-0.0625-0.125c0-0.21875-0.03125-0.375-0.09375-0.46875-0.0625-0.10156-0.16797-0.15625-0.3125-0.15625-0.1875 0-0.33594 0.078125-0.4375 0.23438-0.09375 0.15625-0.14062 0.38281-0.14062 0.67188v1.5156h-1v-1.6094c0-0.34375-0.03125-0.5625-0.09375-0.65625-0.054687-0.10156-0.15625-0.15625-0.3125-0.15625-0.1875 0-0.33594 0.078125-0.4375 0.23438-0.10547 0.15625-0.15625 0.38281-0.15625 0.67188v1.5156h-0.98438v-3.0781h0.98438v0.4375c0.125-0.16406 0.26562-0.28906 0.42188-0.375 0.15625-0.09375 0.32812-0.14062 0.51562-0.14062 0.21875 0 0.40625 0.054688 0.5625 0.15625 0.16406 0.10547 0.28906 0.24609 0.375 0.42188z"/>
  </symbol>
  <symbol id="h" overflow="visible">
   <path d="m3.5781-1.875v1.875h-1v-1.4375c0-0.26953-0.007813-0.45312-0.015625-0.54688-0.011719-0.10156-0.03125-0.17969-0.0625-0.23438-0.03125-0.0625-0.085938-0.10938-0.15625-0.14062-0.0625-0.039063-0.13672-0.0625-0.21875-0.0625-0.21094 0-0.375 0.085937-0.5 0.25-0.11719 0.15625-0.17188 0.375-0.17188 0.65625v1.5156h-0.98438v-4.2812h0.98438v1.6406c0.15625-0.17578 0.31641-0.30469 0.48438-0.39062 0.16406-0.082031 0.34766-0.125 0.54688-0.125 0.35156 0 0.625 0.10938 0.8125 0.32812s0.28125 0.53906 0.28125 0.95312z"/>
  </symbol>
  <symbol id="u" overflow="visible">
   <path d="m2.8906-2.9844v0.75c-0.21875-0.09375-0.42969-0.16016-0.625-0.20312-0.1875-0.039062-0.37109-0.0625-0.54688-0.0625-0.1875 0-0.32812 0.027344-0.42188 0.078125-0.09375 0.042969-0.14062 0.10938-0.14062 0.20312 0 0.085938 0.035156 0.14844 0.10938 0.1875 0.070313 0.042969 0.19531 0.074219 0.375 0.09375l0.17188 0.015625c0.5 0.0625 0.83594 0.17188 1.0156 0.32812 0.17578 0.14844 0.26562 0.375 0.26562 0.6875 0 0.32422-0.125 0.57031-0.375 0.73438-0.24219 0.16797-0.60156 0.25-1.0781 0.25-0.21094 0-0.42188-0.015625-0.64062-0.046875-0.21094-0.03125-0.42969-0.078125-0.65625-0.14062v-0.75c0.19531 0.09375 0.39453 0.16797 0.59375 0.21875 0.20703 0.042969 0.42188 0.0625 0.64062 0.0625 0.1875 0 0.32812-0.023437 0.42188-0.078125 0.10156-0.050781 0.15625-0.12891 0.15625-0.23438 0-0.09375-0.039062-0.16016-0.10938-0.20312-0.0625-0.039062-0.19531-0.070312-0.39062-0.09375l-0.17188-0.03125c-0.4375-0.050781-0.74609-0.14844-0.92188-0.29688-0.17969-0.14453-0.26562-0.36719-0.26562-0.67188 0-0.33203 0.10938-0.57812 0.32812-0.73438 0.22656-0.15625 0.57031-0.23438 1.0312-0.23438 0.1875 0 0.37891 0.015625 0.57812 0.046875 0.19531 0.023437 0.41406 0.0625 0.65625 0.125z"/>
  </symbol>
  <symbol id="t" overflow="visible">
   <path d="m3.375-3.9844v0.875c-0.21875-0.10156-0.4375-0.17969-0.65625-0.23438-0.21875-0.050781-0.42188-0.078125-0.60938-0.078125-0.25 0-0.4375 0.039063-0.5625 0.10938-0.125 0.074219-0.1875 0.18359-0.1875 0.32812 0 0.10547 0.039063 0.1875 0.125 0.25 0.082031 0.0625 0.23438 0.11719 0.45312 0.15625l0.45312 0.09375c0.45703 0.09375 0.78125 0.23438 0.96875 0.42188 0.19531 0.1875 0.29688 0.45312 0.29688 0.79688 0 0.46094-0.13672 0.79688-0.40625 1.0156-0.27344 0.21875-0.68359 0.32812-1.2344 0.32812-0.26172 0-0.52734-0.027344-0.79688-0.078125-0.26172-0.039062-0.52344-0.11328-0.78125-0.21875v-0.89062c0.25781 0.13672 0.50781 0.24219 0.75 0.3125 0.25 0.074219 0.48828 0.10938 0.71875 0.10938 0.23828 0 0.41406-0.035156 0.53125-0.10938 0.125-0.082031 0.1875-0.19531 0.1875-0.34375 0-0.125-0.042969-0.21875-0.125-0.28125-0.085938-0.070313-0.25-0.14062-0.5-0.20312l-0.40625-0.078125c-0.41797-0.09375-0.71875-0.23438-0.90625-0.42188-0.1875-0.19531-0.28125-0.45703-0.28125-0.78125 0-0.41406 0.12891-0.73438 0.39062-0.95312 0.26953-0.21875 0.64844-0.32812 1.1406-0.32812 0.22656 0 0.46094 0.023438 0.70312 0.0625 0.23828 0.03125 0.48438 0.078125 0.73438 0.14062z"/>
  </symbol>
  <symbol id="g" overflow="visible">
   <path d="m0.4375-1.2031v-1.875h1v0.29688c0 0.16797-0.007812 0.38281-0.015625 0.64062v0.5c0 0.25 0.003906 0.43359 0.015625 0.54688 0.019531 0.10547 0.046875 0.17969 0.078125 0.21875 0.039063 0.074219 0.09375 0.125 0.15625 0.15625s0.13281 0.046875 0.21875 0.046875c0.20703 0 0.36719-0.078125 0.48438-0.23438 0.125-0.15625 0.1875-0.375 0.1875-0.65625v-1.5156h0.98438v3.0781h-0.98438v-0.45312c-0.15625 0.1875-0.32031 0.32422-0.48438 0.40625-0.16797 0.082031-0.35156 0.125-0.54688 0.125-0.35547 0-0.625-0.10938-0.8125-0.32812s-0.28125-0.53516-0.28125-0.95312z"/>
  </symbol>
  <symbol id="s" overflow="visible">
   <path d="m0.46875-3.0781h0.98438v3.0781h-0.98438zm0-1.2031h0.98438v0.79688h-0.98438z"/>
  </symbol>
  <symbol id="c" overflow="visible">
   <path d="m1.9375-2.4531c-0.21875 0-0.38672 0.078125-0.5 0.23438-0.11719 0.15625-0.17188 0.38281-0.17188 0.67188 0 0.30469 0.054687 0.53125 0.17188 0.6875 0.11328 0.15625 0.28125 0.23438 0.5 0.23438s0.38281-0.078125 0.5-0.23438c0.11328-0.15625 0.17188-0.38281 0.17188-0.6875 0-0.28906-0.058594-0.51562-0.17188-0.67188-0.11719-0.15625-0.28125-0.23438-0.5-0.23438zm0-0.70312c0.53125 0 0.94141 0.14844 1.2344 0.4375 0.30078 0.28125 0.45312 0.67188 0.45312 1.1719 0 0.51172-0.15234 0.91406-0.45312 1.2031-0.29297 0.28125-0.70312 0.42188-1.2344 0.42188s-0.94922-0.14062-1.25-0.42188c-0.29297-0.28906-0.4375-0.69141-0.4375-1.2031 0-0.5 0.14453-0.89062 0.4375-1.1719 0.30078-0.28906 0.71875-0.4375 1.25-0.4375z"/>
  </symbol>
  <symbol id="r" overflow="visible">
   <path d="m2.5-4.2812v0.64062h-0.54688c-0.13672 0-0.23438 0.027344-0.29688 0.078125-0.054688 0.054688-0.078125 0.14062-0.078125 0.26562v0.21875h0.84375v0.70312h-0.84375v2.375h-0.98438v-2.375h-0.48438v-0.70312h0.48438v-0.21875c0-0.33203 0.09375-0.57812 0.28125-0.73438 0.1875-0.16406 0.47656-0.25 0.875-0.25z"/>
  </symbol>
  <symbol id="q" overflow="visible">
   <path d="m0.51562-4.1094h1.1875l1.5 2.8125v-2.8125h1v4.1094h-1.1875l-1.5-2.8281v2.8281h-1z"/>
  </symbol>
  <symbol id="p" overflow="visible">
   <path d="m3.5781-1.875v1.875h-1v-1.4375c0-0.26953-0.007813-0.45312-0.015625-0.54688-0.011719-0.10156-0.03125-0.17969-0.0625-0.23438-0.03125-0.0625-0.085938-0.10938-0.15625-0.14062-0.0625-0.039063-0.13672-0.0625-0.21875-0.0625-0.21094 0-0.375 0.085937-0.5 0.25-0.11719 0.15625-0.17188 0.375-0.17188 0.65625v1.5156h-0.98438v-3.0781h0.98438v0.4375c0.15625-0.17578 0.31641-0.30469 0.48438-0.39062 0.16406-0.082031 0.34766-0.125 0.54688-0.125 0.35156 0 0.625 0.10938 0.8125 0.32812s0.28125 0.53906 0.28125 0.95312z"/>
  </symbol>
  <symbol id="o" overflow="visible">
   <path d="m0.51562-4.1094h1.7656c0.51953 0 0.92188 0.11719 1.2031 0.34375 0.28125 0.23047 0.42188 0.5625 0.42188 1 0 0.42969-0.14062 0.76172-0.42188 1-0.28125 0.23047-0.68359 0.34375-1.2031 0.34375h-0.70312v1.4219h-1.0625zm1.0625 0.76562v1.1562h0.59375c0.19531 0 0.35156-0.050781 0.46875-0.15625 0.11328-0.10156 0.17188-0.24219 0.17188-0.42188 0-0.1875-0.058594-0.32812-0.17188-0.42188-0.11719-0.10156-0.27344-0.15625-0.46875-0.15625z"/>
  </symbol>
  <symbol id="n" overflow="visible">
   <path d="m0.46875-3.0781h0.98438v3.0156c0 0.41406-0.10156 0.73438-0.29688 0.95312-0.19922 0.21875-0.48438 0.32812-0.85938 0.32812h-0.48438v-0.65625h0.17188c0.1875 0 0.3125-0.042969 0.375-0.125 0.070313-0.085938 0.10938-0.25 0.10938-0.5zm0-1.2031h0.98438v0.79688h-0.98438z"/>
  </symbol>
  <symbol id="m" overflow="visible">
   <path d="m2.9688-2.9844v0.79688c-0.13672-0.09375-0.27344-0.16016-0.40625-0.20312-0.13672-0.039063-0.27734-0.0625-0.42188-0.0625-0.27344 0-0.48438 0.085937-0.64062 0.25-0.15625 0.15625-0.23438 0.375-0.23438 0.65625 0 0.29297 0.078125 0.52344 0.23438 0.6875 0.15625 0.15625 0.36719 0.23438 0.64062 0.23438 0.15625 0 0.30078-0.019531 0.4375-0.0625 0.14453-0.050781 0.27344-0.11719 0.39062-0.20312v0.79688c-0.15625 0.0625-0.3125 0.10156-0.46875 0.125-0.15625 0.03125-0.32031 0.046875-0.48438 0.046875-0.55469 0-0.98438-0.14062-1.2969-0.42188-0.3125-0.28906-0.46875-0.69141-0.46875-1.2031 0-0.5 0.15625-0.89062 0.46875-1.1719 0.3125-0.28906 0.74219-0.4375 1.2969-0.4375 0.16406 0 0.32812 0.015625 0.48438 0.046875 0.15625 0.023437 0.3125 0.0625 0.46875 0.125z"/>
  </symbol>
 </defs>
 <g>
  <path d="m350 69.699c2.4922 0 4.5156-2.0234 4.5156-4.5156v-60.668c0-2.4922-2.0234-4.5156-4.5156-4.5156s-4.5156 2.0234-4.5156 4.5156v60.668c0 2.4922 2.0234 4.5156 4.5156 4.5156z"/>
  <path d="m206.4 124.38c0.88281 0.87891 2.0352 1.3164 3.1875 1.3164 1.1562 0 2.3164-0.44531 3.1992-1.3281 1.7617-1.7656 1.7578-4.625-0.007812-6.3867l-51.484-51.332c-1.7656-1.7617-4.625-1.7578-6.3867 0.011718-1.7617 1.7656-1.7578 4.625 0.007813 6.3867z"/>
  <path d="m167.3 256.52c0-2.4922-2.0234-4.5156-4.5156-4.5156h-70.203c-2.4922 0-4.5156 2.0234-4.5156 4.5156s2.0234 4.5156 4.5156 4.5156h70.207c2.4922 0 4.5117-2.0195 4.5117-4.5156z"/>
  <path d="m192.36 369.98-51.484 51.332c-1.7656 1.7617-1.7695 4.6211-0.007812 6.3867 0.88281 0.88672 2.0391 1.3281 3.1992 1.3281 1.1523 0 2.3047-0.4375 3.1875-1.3164l51.484-51.332c1.7656-1.7617 1.7695-4.6211 0.007813-6.3867-1.7578-1.7695-4.6211-1.7695-6.3867-0.011719z"/>
  <path d="m490.41 125.7c1.1523 0 2.3047-0.4375 3.1875-1.3164l51.484-51.332c1.7656-1.7617 1.7695-4.6211 0.007813-6.3867-1.7617-1.7656-4.6211-1.7695-6.3867-0.011718l-51.484 51.332c-1.7656 1.7617-1.7695 4.6211-0.007812 6.3867 0.88281 0.88672 2.043 1.3281 3.1992 1.3281z"/>
  <path d="m607.42 252h-70.207c-2.4922 0-4.5156 2.0234-4.5156 4.5156s2.0234 4.5156 4.5156 4.5156h70.207c2.4922 0 4.5156-2.0234 4.5156-4.5156s-2.0195-4.5156-4.5156-4.5156z"/>
  <path d="m507.64 369.98c-1.7656-1.7617-4.625-1.7539-6.3867 0.011719-1.7617 1.7656-1.7578 4.625 0.007813 6.3867l51.484 51.332c0.88281 0.87891 2.0352 1.3164 3.1875 1.3164 1.1562 0 2.3164-0.44531 3.1992-1.3281 1.7617-1.7656 1.7578-4.625-0.007812-6.3867z"/>
  <path d="m359.17 326.67 4.8867-154.3h-28.117l4.8867 154.3z"/>
  <path d="m420.92 451.98h-142.14c-6.1562 0-11.164 4.9336-11.164 10.996v7.9883c0 6.0625 5.0078 10.996 11.164 10.996h142.14c6.1562 0 11.164-4.9336 11.164-10.996v-7.9883c-0.003906-6.0664-5.0117-10.996-11.168-10.996z"/>
  <path d="m413.04 491h-126.37c-6.1562 0-11.16 4.9336-11.16 10.996v7.9883c0 6.0625 5.0078 10.996 11.16 10.996h126.37c6.1562 0 11.164-4.9336 11.164-10.996v-7.9883c-0.003906-6.0625-5.0117-10.996-11.164-10.996z"/>
  <path d="m405.15 530.02h-110.6c-6.1562 0-11.164 4.9336-11.164 10.996v7.9883c0 6.0625 5.0078 10.996 11.16 10.996h110.6c6.1562 0 11.16-4.9336 11.16-10.996v-7.9883c0.003906-6.0625-5.0039-10.996-11.156-10.996z"/>
  <path d="m364.21 373.18c0 7.8125-6.3633 14.148-14.207 14.148s-14.207-6.3359-14.207-14.148c0-7.8164 6.3633-14.152 14.207-14.152s14.207 6.3359 14.207 14.152"/>
  <path d="m491.82 189.6c-22.395-57.762-79.449-96.57-141.97-96.57-62.52 0-119.57 38.809-141.97 96.57-20.52 52.926-8.6992 114.47 30.113 156.79 10.93 11.918 18.93 26.324 23.141 41.672l14.824 55.102c0.92187-0.12891 1.8594-0.21875 2.8164-0.21875h142.14c0.95703 0 1.8945 0.089843 2.8164 0.21875l14.82-55.082c4.2148-15.363 12.215-29.773 23.145-41.691 38.816-42.32 50.637-103.87 30.117-156.79zm-163.79-24.895c0.85156-0.87891 2.0195-1.375 3.2422-1.375h37.441c1.2227 0 2.3945 0.49609 3.2422 1.375 0.85156 0.87891 1.3086 2.0625 1.2695 3.2852l-5.1719 163.33c-0.078125 2.4375-2.0742 4.3711-4.5156 4.3711h-27.098c-2.4375 0-4.4375-1.9375-4.5156-4.3711l-5.1719-163.33c-0.03125-1.2227 0.42578-2.4062 1.2773-3.2852zm21.965 231.66c-12.812 0-23.238-10.398-23.238-23.184 0-12.781 10.426-23.18 23.238-23.18s23.238 10.398 23.238 23.184c0 12.781-10.426 23.18-23.238 23.18z"/>
  <use x="88.066406" y="576.933594" xlink:href="#v"/>
  <use x="92.207031" y="576.933594" xlink:href="#d"/>
  <use x="94.992188" y="576.933594" xlink:href="#b"/>
  <use x="98.820312" y="576.933594" xlink:href="#l"/>
  <use x="102.628906" y="576.933594" xlink:href="#a"/>
  <use x="105.328125" y="576.933594" xlink:href="#b"/>
  <use x="109.15625" y="576.933594" xlink:href="#f"/>
  <use x="115.164062" y="576.933594" xlink:href="#k"/>
  <use x="119.203125" y="576.933594" xlink:href="#e"/>
  <use x="124.847656" y="576.933594" xlink:href="#j"/>
  <use x="129.21875" y="576.933594" xlink:href="#i"/>
  <use x="135.101562" y="576.933594" xlink:href="#b"/>
  <use x="138.929688" y="576.933594" xlink:href="#a"/>
  <use x="141.628906" y="576.933594" xlink:href="#h"/>
  <use x="145.644531" y="576.933594" xlink:href="#e"/>
  <use x="149.324219" y="576.933594" xlink:href="#u"/>
  <use x="152.6875" y="576.933594" xlink:href="#a"/>
  <use x="157.351562" y="576.933594" xlink:href="#t"/>
  <use x="161.414062" y="576.933594" xlink:href="#a"/>
  <use x="164.113281" y="576.933594" xlink:href="#g"/>
  <use x="168.132812" y="576.933594" xlink:href="#f"/>
  <use x="172.175781" y="576.933594" xlink:href="#s"/>
  <use x="174.109375" y="576.933594" xlink:href="#c"/>
  <use x="88.066406" y="582.582031" xlink:href="#r"/>
  <use x="90.519531" y="582.582031" xlink:href="#d"/>
  <use x="93.304688" y="582.582031" xlink:href="#c"/>
  <use x="97.183594" y="582.582031" xlink:href="#i"/>
  <use x="105.03125" y="582.582031" xlink:href="#a"/>
  <use x="107.730469" y="582.582031" xlink:href="#h"/>
  <use x="111.746094" y="582.582031" xlink:href="#b"/>
  <use x="117.542969" y="582.582031" xlink:href="#q"/>
  <use x="122.265625" y="582.582031" xlink:href="#c"/>
  <use x="126.144531" y="582.582031" xlink:href="#g"/>
  <use x="130.164062" y="582.582031" xlink:href="#p"/>
  <use x="136.148438" y="582.582031" xlink:href="#o"/>
  <use x="140.285156" y="582.582031" xlink:href="#d"/>
  <use x="143.070312" y="582.582031" xlink:href="#c"/>
  <use x="146.949219" y="582.582031" xlink:href="#n"/>
  <use x="148.882812" y="582.582031" xlink:href="#b"/>
  <use x="152.710938" y="582.582031" xlink:href="#m"/>
  <use x="156.058594" y="582.582031" xlink:href="#a"/>
 </g>
</svg>
